<svg xmlns="http://www.w3.org/2000/svg" version="1.1" xmlns:xlink="http://www.w3.org/1999/xlink" xmlns:svgjs="http://svgjs.dev/svgjs" width="100%" height="100%" viewBox="0 0 1000 600"><rect width="1000" height="600" x="0" y="0" fill="#d7f9f8"/><g><rect width="333.3333333333333" height="333.3333333333333" rx="13.333333333333334" ry="13.333333333333334" y="221.2900199562223" fill="#d6e6ff" transform="matrix(0.6279266966056107,0,0,0.6279266966056107,0,56.39161441332422)" x="199.06777954101562"/><path d="M286.8064541064206 461.6555522159387L314.2532633025009 314.2332899418222L339.46602988959796 314.2332899418222L366.9864888420184 461.6555522159387L344.5478630770654 461.6555522159387L340.49712647835946 435.23983960861995L313.2221667137394 435.23983960861995L309.3432795464937 461.6555522159387L286.8064541064206 461.6555522159387ZM315.7999081856432 418.42314524429526L337.89483508767563 418.42314524429526L327.3874698498202 344.6260893915068L326.43002301739875 344.6260893915068L315.7999081856432 418.42314524429526ZM414.1223328996876 462.9566979112806L414.1223328996876 462.9566979112806Q408.7704506056397 462.9566979112806 402.4120216416104 461.3855031093583Q396.0781425963611 459.8388582262161 390.3825614393927 454.9288744702088Q384.6869802824244 449.99434079542164 381.05359230297904 440.12527344584714Q377.4447542423137 430.2316561774926 377.4447542423137 413.6604610009682L377.4447542423137 413.6604610009682L377.4447542423137 361.44278375583156Q377.4447542423137 348.16127769583204 379.89974612031733 339.32330693501905Q382.35473799832096 330.460786255426 386.3563747594668 325.15800379893824Q390.3825614393927 319.8552213424505 395.2679952766199 317.2283800329866Q400.12887919506704 314.5769888047427 405.01431303229424 313.76684148500146Q409.89974686952144 312.95669416526033 414.02413322456744 312.95669416526033L414.02413322456744 312.95669416526033Q425.4152955385042 312.95669416526033 432.068323527894 317.1792801954265Q438.7213515172837 321.4018662255927 441.59369201454797 328.52134267180315Q444.4905824305922 335.6408191180136 444.4905824305922 344.1841908534662L444.4905824305922 344.1841908534662Q444.4905824305922 348.9468750967932 443.7540848671911 352.948511857939Q443.0421372225701 356.974698537865 442.0846903901487 361.786482618752L442.0846903901487 361.786482618752L424.82609748778333 361.786482618752L424.82609748778333 354.7161060101016Q424.82609748778333 330.460786255426 413.4349351738466 330.460786255426L413.4349351738466 330.460786255426Q407.2974554788376 330.460786255426 404.05686619987284 335.7635687119138Q400.8162769209081 341.09090108718163 400.8162769209081 355.2316543044824L400.8162769209081 355.2316543044824L400.8162769209081 421.68828444204Q400.8162769209081 435.4116890400802 404.05686619987284 440.41987247120755Q407.2974554788376 445.4280559023349 414.1223328996876 445.4280559023349L414.1223328996876 445.4280559023349Q418.8604672242345 445.4280559023349 421.97830690929914 441.426419141189Q425.0715966755837 437.4002324612631 425.0715966755837 428.51316186289006L425.0715966755837 428.51316186289006L425.0715966755837 414.5197081582695L444.6624318620525 414.5197081582695L444.6624318620525 428.16946299996954Q444.6624318620525 445.8699544403755 436.80645785244093 454.41332617582805Q428.9504838428294 462.9566979112806 414.1223328996876 462.9566979112806Z " fill="#e5d4ef" transform="matrix(0.6279266966056107,0,0,0.6279266966056107,0,56.39161441332422)"/><path d="M615.7344402533445 461.69373234151715L640.948695831544 326.2629588646947L664.1106282812852 326.2629588646947L689.3925428637195 461.69373234151715L668.7790995734922 461.69373234151715L665.0578543405736 437.42670282260605L640.0014697722556 437.42670282260605L636.4380955492185 461.69373234151715L615.7344402533445 461.69373234151715ZM642.3695349204766 421.9778968556413L662.6672361909411 421.9778968556413L653.0145515867646 354.18357461228936L652.1349845317111 354.18357461228936L642.3695349204766 421.9778968556413ZM700.7367025737681 461.69373234151715L700.7367025737681 317.46728831416L720.7863208287049 317.46728831416L720.7863208287049 461.69373234151715L700.7367025737681 461.69373234151715ZM738.5580859410672 416.97113054226L738.5580859410672 416.97113054226L738.5580859410672 396.3576872520326Q738.5580859410672 383.8407714685794 740.7006210751719 375.58637295192375Q742.8431562092765 367.33197443526814 746.3614244294903 362.41542012753337Q749.9022456511158 357.4988658197986 754.1422099165018 355.13080067157773Q758.3821741818876 352.76273552335687 762.5770324444504 351.99593347536154Q766.7718907070131 351.2516844287778 770.2676059258154 351.2516844287778L770.2676059258154 351.2516844287778Q777.4845663775361 351.2516844287778 783.5964297600872 354.2963396193475Q789.7082931426381 357.3409948099172 793.3844323727334 364.7609322743426Q797.0605716028286 372.180869738768 797.0605716028286 385.3292695617468L797.0605716028286 385.3292695617468Q797.0605716028286 391.914745973942 796.3614285590681 398.7708584030767Q795.6397325138962 405.62697083221144 794.4444234390799 410.859267159709L794.4444234390799 410.859267159709L758.6979162016505 410.859267159709L758.6979162016505 421.9778968556413Q758.6979162016505 436.2313937477898 761.1110873526947 442.1177271162245Q763.5242585037388 447.9815074832477 770.3578179314618 447.9815074832477L770.3578179314618 447.9815074832477Q774.0790631643804 447.9815074832477 777.1011653535385 444.75642828138496Q780.1007145412849 441.5539020809339 780.1007145412849 432.9161025402806L780.1007145412849 432.9161025402806L780.1007145412849 428.1574192424272L796.5869585731845 428.1574192424272L796.5869585731845 433.1416325543969Q796.5869585731845 448.6806505270081 789.1895741101707 455.78484597167073Q781.7696366457453 462.8890414163334 767.7416697677131 462.8890414163334L767.7416697677131 462.8890414163334Q753.6234908840344 462.8890414163334 746.0907884125508 452.1087067415755Q738.5580859410672 441.30581906540596 738.5580859410672 416.97113054226ZM758.6979162016505 397.39512531696744L778.3641334325896 397.39512531696744Q778.5220044424709 395.6359912068605 778.5896634467058 392.11772298664664Q778.6798754523523 388.5994547664328 778.6798754523523 386.4569196323282L778.6798754523523 386.4569196323282Q778.6798754523523 375.58637295192375 776.3794693083664 370.9179016597169Q774.0790631643804 366.22687736609845 769.0722968509991 366.1592183618635L769.0722968509991 366.1592183618635Q763.7723415192667 366.1592183618635 761.2238523597528 371.5042796964192Q758.6979162016505 376.8493410309749 758.6979162016505 390.9675199146536L758.6979162016505 390.9675199146536L758.6979162016505 397.39512531696744ZM805.089440105368 461.69373234151715L827.7552065240535 406.2810078731486L806.1945371745378 352.514652507829L826.7177684591187 352.514652507829L838.37767018893 388.28371274667L838.5355411988114 388.28371274667L850.9171389737949 352.514652507829L870.0871901736781 352.514652507829L849.4060878792158 404.3640027531603L872.635679333192 461.69373234151715L852.0898950471994 461.69373234151715L838.6257532044579 424.0302199840994L837.9942691649323 424.0302199840994L824.3497033108978 461.69373234151715L805.089440105368 461.69373234151715ZM908.22431556074 368.14388248608674L892.1440255542497 368.14388248608674L890.1593614300265 312.9566880318346L909.8932376652003 312.9566880318346L908.22431556074 368.14388248608674ZM930.9802939850721 438.84754191153854L930.9802939850721 438.84754191153854Q930.9802939850721 435.28416768850144 931.6568840274208 431.9688764809922Q932.3334740697696 428.63103227207137 932.9649581092953 426.6463681478482L932.9649581092953 426.6463681478482L947.083136992974 426.6463681478482Q947.083136992974 438.5317998917758 950.0601331793088 443.2679301882175Q953.0371293656436 447.9815074832477 958.585167712904 447.9815074832477L958.585167712904 447.9815074832477Q962.5544959613503 447.9815074832477 964.7646900996898 445.56833633220356Q966.9748842380293 443.13261217974775 966.9748842380293 439.8173209722386L966.9748842380293 439.8173209722386Q966.9748842380293 436.3216057534363 965.1255381222759 433.07397355016195Q963.2536390051109 429.8263413468876 960.0060068018364 425.9246721026761L960.0060068018364 425.9246721026761L945.9780399238042 408.64907302136953Q940.2721305666624 401.4321125696488 935.7840832857487 393.5385620755792Q931.2960360048348 385.6675645829212 931.2960360048348 376.1501979872145L931.2960360048348 376.1501979872145Q931.2960360048348 367.64771645503095 935.039834239165 362.14478411059383Q938.7610794720835 356.6418517661568 944.8729428546345 353.9354915967615Q950.9622532357739 351.2516844287778 958.1115546832598 351.2516844287778L958.1115546832598 351.2516844287778Q969.9293274229525 351.2516844287778 976.9658638633803 356.9124877830963Q984.0249533052196 362.5732911374148 984.0249533052196 373.91745084746333L984.0249533052196 373.91745084746333Q984.0249533052196 377.63869608038186 983.3483632628709 381.24717630624224Q982.6943262219336 384.8556565321026 982.0402891809964 387.4041456916165L982.0402891809964 387.4041456916165L968.1701933128456 387.4041456916165Q968.0123223029641 376.62381101685867 965.6442571547433 371.3915146893611Q963.2536390051109 366.1592183618635 957.7958126634969 366.1592183618635L957.7958126634969 366.1592183618635Q953.1950003755251 366.1592183618635 951.4358662654181 369.0008965397286Q949.6992851567227 371.8651277190053 949.6992851567227 375.3382899363959L949.6992851567227 375.3382899363959Q949.6992851567227 379.1497471749609 951.5937372752994 382.2169553669422Q953.5107423952877 385.2616105575119 956.5102915830342 389.07306779607694L956.5102915830342 389.07306779607694L972.38760457682 408.24311899596023Q974.6654577193942 411.1073501752369 977.6875599085523 415.5051854505042Q980.7096620977104 419.90302072577157 982.9649622388731 425.4285060716203Q985.2202623800358 430.93143841605735 985.2202623800358 437.35904381837116L985.2202623800358 437.35904381837116Q985.2202623800358 448.8385215368895 978.0033019283151 455.8750579773173Q970.7863414765943 462.8890414163334 957.3898586380876 462.8890414163334L957.3898586380876 462.8890414163334Q950.105239182132 462.8890414163334 944.0610348038158 460.6337412751706Q938.0393834269114 458.35588813259625 934.5211152066975 453.10103880368706Q930.9802939850721 447.82363647336626 930.9802939850721 438.84754191153854ZM1036.4381285858417 461.69373234151715L1036.4381285858417 326.2629588646947L1056.983912871834 326.2629588646947L1056.983912871834 461.69373234151715L1036.4381285858417 461.69373234151715ZM1073.4701569037338 438.84754191153854L1073.4701569037338 438.84754191153854Q1073.4701569037338 435.28416768850144 1074.1467469460827 431.9688764809922Q1074.8233369884315 428.63103227207137 1075.454821027957 426.6463681478482L1075.454821027957 426.6463681478482L1089.5729999116356 426.6463681478482Q1089.5729999116356 438.5317998917758 1092.527443096559 443.2679301882175Q1095.5044392828936 447.9815074832477 1101.052477630154 447.9815074832477L1101.052477630154 447.9815074832477Q1105.0218058786004 447.9815074832477 1107.2545530183515 445.56833633220356Q1109.4647471566911 443.13261217974775 1109.4647471566911 439.8173209722386L1109.4647471566911 439.8173209722386Q1109.4647471566911 436.3216057534363 1107.592848039526 433.07397355016195Q1105.7435019237726 429.8263413468876 1102.4958697204981 425.9246721026761L1102.4958697204981 425.9246721026761L1088.4453498410544 408.64907302136953Q1082.7394404839126 401.4321125696488 1078.2739462044105 393.5385620755792Q1073.7858989234965 385.6675645829212 1073.7858989234965 376.1501979872145L1073.7858989234965 376.1501979872145Q1073.7858989234965 367.64771645503095 1077.507144156415 362.14478411059383Q1081.2283893893336 356.6418517661568 1087.3402527718847 353.9354915967615Q1093.4521161544358 351.2516844287778 1100.5788646005099 351.2516844287778L1100.5788646005099 351.2516844287778Q1112.3966373402027 351.2516844287778 1119.455726782042 356.9124877830963Q1126.5148162238813 362.5732911374148 1126.5148162238813 373.91745084746333L1126.5148162238813 373.91745084746333Q1126.5148162238813 377.63869608038186 1125.8382261815325 381.24717630624224Q1125.1616361391839 384.8556565321026 1124.5301520996582 387.4041456916165L1124.5301520996582 387.4041456916165L1110.6600562315073 387.4041456916165Q1110.502185221626 376.62381101685867 1108.1115670719935 371.3915146893611Q1105.7435019237726 366.1592183618635 1100.2631225807472 366.1592183618635L1100.2631225807472 366.1592183618635Q1095.6623102927751 366.1592183618635 1093.92572918408 369.0008965397286Q1092.1891480753845 371.8651277190053 1092.1891480753845 375.3382899363959L1092.1891480753845 375.3382899363959Q1092.1891480753845 379.1497471749609 1094.083600193961 382.2169553669422Q1095.978052312538 385.2616105575119 1099.000154501696 389.07306779607694L1099.000154501696 389.07306779607694L1114.85491449407 408.24311899596023Q1117.1553206380559 411.1073501752369 1120.177422827214 415.5051854505042Q1123.1769720149605 419.90302072577157 1125.4322721561234 425.4285060716203Q1127.7101252986977 430.93143841605735 1127.7101252986977 437.35904381837116L1127.7101252986977 437.35904381837116Q1127.7101252986977 448.8385215368895 1120.493164846977 455.8750579773173Q1113.2762043952562 462.8890414163334 1099.8797215567495 462.8890414163334L1099.8797215567495 462.8890414163334Q1092.5725490993823 462.8890414163334 1086.5508977224777 460.6337412751706Q1080.529246345573 458.35588813259625 1076.9884251239478 453.10103880368706Q1073.4701569037338 447.82363647336626 1073.4701569037338 438.84754191153854ZM1142.775530241665 461.69373234151715L1142.775530241665 317.46728831416L1162.8251484966013 317.46728831416L1162.8251484966013 461.69373234151715L1142.775530241665 461.69373234151715ZM1202.5409839824774 401.0487115456511L1202.5409839824774 401.0487115456511Q1205.5630861716354 399.53766045107204 1209.0588013904376 397.9363973508465Q1212.5319636078282 396.3576872520326 1215.4638537913397 395.3202491870977L1215.4638537913397 395.3202491870977L1215.4638537913397 382.08163735847245Q1215.4638537913397 377.95443810014467 1215.1255587701653 374.3910638771075Q1214.7647107475793 370.8276896540704 1212.9830236360608 368.57238951290765Q1211.201336524542 366.31708937174494 1206.916266256333 366.31708937174494L1206.916266256333 366.31708937174494Q1202.6311959881239 366.31708937174494 1199.225692774968 369.79025158913555Q1195.8201895618122 373.28596680793777 1195.8201895618122 382.713121397998L1195.8201895618122 382.713121397998L1195.8201895618122 387.0884036718537L1180.5067016033172 387.0884036718537Q1179.0858625143846 380.9088812850678 1179.0858625143846 376.30806899709586L1179.0858625143846 376.30806899709586Q1179.0858625143846 364.0843422319938 1187.0921780155127 357.70184283250325Q1195.0984935166402 351.3193434330127 1207.5477502958584 351.3193434330127L1207.5477502958584 351.3193434330127Q1218.3957439748513 351.3193434330127 1224.5076073574023 354.38655162499407Q1230.6194707399534 357.43120681556377 1233.0777478938207 363.5656231995264Q1235.536025047688 369.72259258490067 1235.536025047688 379.1497471749609L1235.536025047688 379.1497471749609L1235.536025047688 461.69373234151715L1220.0646660793118 461.69373234151715L1218.6438269903792 452.33423675569173Q1215.4638537913397 456.93504904366375 1210.2315574638421 459.9571512328218Q1204.9992611363446 462.95670042056827 1198.0980427043864 462.95670042056827L1198.0980427043864 462.95670042056827Q1190.9712942583124 462.95670042056827 1186.3704819703403 459.3256671932962Q1181.7696696823684 455.67208096461263 1179.5143695412057 449.6729825891197Q1177.2590694000428 443.6964372150385 1177.2590694000428 436.6373477731991L1177.2590694000428 436.6373477731991Q1177.2590694000428 423.1506529290459 1183.6866748023567 415.18944343074145Q1190.0917272032589 407.228233932437 1202.5409839824774 401.0487115456511ZM1206.9839252605677 447.6657654634849L1206.9839252605677 447.6657654634849Q1209.5324144200817 447.6657654634849 1211.6749495541862 446.3576913816105Q1213.817484688291 445.0496172997361 1215.4638537913397 443.13261217974775L1215.4638537913397 443.13261217974775L1215.4638537913397 408.739285027016Q1213.9753556981723 409.3707690665416 1212.2162215880653 410.2277831201834Q1210.4796404793701 411.1073501752369 1208.179234335384 412.52818926416944L1208.179234335384 412.52818926416944Q1203.9843760728213 415.14433742791823 1200.3307898441376 420.35408075400414Q1196.6772036154541 425.5412710786784 1196.6772036154541 433.54758657980614L1196.6772036154541 433.54758657980614Q1196.6772036154541 439.8173209722386 1199.1354807693215 443.7415432178617Q1201.593757923189 447.6657654634849 1206.9839252605677 447.6657654634849ZM1255.7435143125062 461.69373234151715L1255.7435143125062 352.514652507829L1271.0570022710012 352.514652507829L1273.0416663952244 364.17455423764034L1273.0416663952244 364.2422132418752Q1277.7101376874311 356.70951077039166 1283.664130060101 353.98059759958477Q1289.6181224327706 351.2516844287778 1295.639773809675 351.2516844287778L1295.639773809675 351.2516844287778Q1305.1571404053818 351.2516844287778 1310.3894367328794 357.99503185085445Q1315.6217330603768 364.7158262715194 1315.6217330603768 378.04465010579116L1315.6217330603768 378.04465010579116L1315.6217330603768 461.69373234151715L1295.5495618040286 461.69373234151715L1295.5495618040286 380.412715254012Q1295.5495618040286 373.21830780370294 1293.3393676656892 370.3991826272495Q1291.106620525938 367.58005745079606 1286.8215502577286 367.58005745079606L1286.8215502577286 367.58005745079606Q1283.8220010699824 367.58005745079606 1280.9577698907055 369.5647215750193Q1278.1160917128404 371.54938569924246 1275.8156855688546 375.0225479166331L1275.8156855688546 375.0225479166331L1275.8156855688546 461.69373234151715L1255.7435143125062 461.69373234151715ZM1333.2130741614462 423.5566069544552L1333.2130741614462 423.5566069544552L1333.2130741614462 388.91519678619557Q1333.2130741614462 377.8867790959098 1335.039867275788 370.8276896540704Q1336.86666039013 363.76860021223104 1339.7534445708184 359.776718962373Q1342.6402287515066 355.7622847111033 1345.932966957604 353.98059759958477Q1349.2257051637018 352.1989104880662 1352.2478073528598 351.7704034612453Q1355.2473565406062 351.3193434330127 1357.1643616605945 351.3193434330127L1357.1643616605945 351.3193434330127Q1363.118354033264 351.3193434330127 1367.4710833057084 354.22868061511264Q1371.8238125781522 357.11546479580096 1374.0565597179034 360.4533090047218L1374.0565597179034 360.4533090047218L1374.1242187221383 360.3630969990753L1373.4927346826128 346.56066013515937L1373.4927346826128 317.46728831416L1393.4746939333145 317.46728831416L1393.4746939333145 461.69373234151715L1377.8454639550569 461.69373234151715L1376.1088828463617 451.5448817062848Q1373.4927346826128 455.89761097872884 1368.891922394641 459.4384322003543Q1364.2911101066688 462.95670042056827 1356.6907486309503 462.95670042056827L1356.6907486309503 462.95670042056827Q1353.9167294573203 462.95670042056827 1349.992507211697 461.941815357045Q1346.0682849660739 460.90437729211015 1342.2117217246855 457.1380260563684Q1338.377711484709 453.3716748206266 1335.7841163223718 445.4104653223221Q1333.2130741614462 437.42670282260605 1333.2130741614462 423.5566069544552ZM1373.4927346826128 438.77988290730366L1373.4927346826128 438.77988290730366L1373.4927346826128 375.58637295192375Q1371.9816835880338 372.33874074864946 1369.5008534327549 369.9481225990169Q1366.9974702760642 367.58005745079606 1363.434096053027 367.58005745079606L1363.434096053027 367.58005745079606Q1360.4796528681036 367.58005745079606 1358.224352726941 369.1362145481984Q1355.9690525857782 370.66981864418904 1354.660978503904 374.909782909575Q1353.3529044220295 379.1497471749609 1353.3529044220295 387.31393368597L1353.3529044220295 387.31393368597L1353.3529044220295 426.7365801534947Q1353.3529044220295 434.81055465885726 1354.660978503904 439.14073092988974Q1355.9690525857782 443.44835419951056 1358.2694587297642 445.0496172997361Q1360.5698648737502 446.62832739855 1363.501755057262 446.62832739855L1363.501755057262 446.62832739855Q1367.4710833057084 446.62832739855 1369.8391484539293 444.2151562475059Q1372.2297666035615 441.80198509646175 1373.4927346826128 438.77988290730366Z " fill="#e5d4ef" transform="matrix(0.6279266966056107,0,0,0.6279266966056107,0,56.39161441332422)"/></g></svg>